<svg xmlns="http://www.w3.org/2000/svg" viewBox="0 0 30 30" enable-background="new 0 0 30 30"><style type="text/css">.st0{fill:#231F20;} .st1{fill:#FFFFFF;}</style><circle class="st0" cx="15" cy="15" r="15"/><path id="XMLID_30_" class="st1" d="M20.9 12.9s-.1-.8-.5-1.2c-.5-.5-1-.5-1.2-.5-1.7-.1-4.2-.1-4.2-.1s-2.5 0-4.2.1c-.2 0-.7 0-1.2.5-.4.4-.5 1.2-.5 1.2s-.1 1-.1 1.9v.9c0 1 .1 1.9.1 1.9s.1.8.5 1.2c.5.5 1.1.5 1.3.5 1 .1 4.1.1 4.1.1s2.5 0 4.2-.1c.2 0 .7 0 1.2-.5.4-.4.5-1.2.5-1.2s.1-1 .1-1.9v-.9c0-.9-.1-1.9-.1-1.9zm-7.1 3.9v-3.4l3.3 1.7-3.3 1.7z"/></svg>