<?xml version="1.0" encoding="utf-8"?>
<!-- Generator: Adobe Illustrator 16.0.2, SVG Export Plug-In . SVG Version: 6.00 Build 0)  -->
<svg version="1.2" baseProfile="tiny" id="Layer_1" xmlns="http://www.w3.org/2000/svg" xmlns:xlink="http://www.w3.org/1999/xlink"
	 x="0px" y="0px" width="955.096px" height="461.715px" viewBox="2.904 2.439 955.096 461.715" xml:space="preserve">
<path d="M34.403,263.885L47.5,249.959c3.15-3.315,14.755-15.585,14.755-19.896c0-4.642-7.294-4.973-10.279-4.973v-3.814l17.076,0.83
	l16.579-0.83v3.814c-10.445,0.332-12.435,3.647-19.231,11.108l-17.906,20.06l37.468,36.638c5.141,4.643,6.466,7.626,13.429,8.787
	v3.813c-3.814-0.164-7.958-0.663-11.937-0.828l-12.103,0.828l-36.97-39.457l-3.979,3.979v12.103
	c0,12.933-1.823,18.734,13.595,19.729v3.814l-21.884-0.83c-7.294,0.167-14.423,0.663-22.05,0.83v-3.814
	c14.59-0.994,13.594-5.637,13.594-18.566v-77.258c0-4.476,0-14.92-2.154-18.567c-2.487-4.477-7.958-4.477-12.6-5.14v-3.813
	l31.499-6.134V263.885L34.403,263.885z M149.294,261.729c-12.434,5.638-30.837,12.767-30.837,29.013
	c0,10.942,9.947,17.242,20.226,17.242c11.937,0,23.21-6.466,32.329-13.927c1.989,7.792,8.786,13.927,16.745,13.927
	c7.294,0,14.423-6.631,17.574-13.098l-3.647-1.989c-2.156,2.651-4.146,6.3-7.958,6.3c-7.626,0-6.797-14.423-6.797-19.397v-32.162
	c0-22.38-9.947-28.018-31.5-28.018c-9.947,0-35.81,2.652-35.81,17.076c0,4.31,3.15,6.964,7.46,6.964
	c4.809,0,7.461-4.313,7.792-8.622c0.663-10.278,8.456-11.107,18.236-11.107c15.916,0,17.076,9.284,17.076,22.546
	c0,2.156,0.331,4.643-1.491,5.637L149.294,261.729L149.294,261.729z M170.182,289.083c-5.47,5.305-13.76,11.108-21.387,11.108
	c-7.958,0-12.434-6.797-12.434-14.093c0-15.583,22.05-23.209,33.656-28.847v31.831H170.182z M221.079,228.24v-3.481
	c9.781-5.637,19.562-13.428,23.708-24.537h2.983v22.878h22.216v5.305H247.77v55.54c0,8.784,1.824,18.069,12.103,18.069
	c6.798,0,10.279-3.978,14.092-8.786l3.481,2.485c-3.481,9.286-13.262,12.435-22.546,12.435c-14.092,0-23.707-5.305-23.707-20.061
	V228.24H221.079L221.079,228.24z M368.961,287.591c-5.803,7.792-14.59,14.424-24.537,14.424c-20.723,0-30.505-20.724-30.505-39.292
	l0.83-9.449h55.87c1.99,0,4.808,0.829,4.808-1.823c0-21.22-18.071-31.831-37.136-31.831c-25.365,0-43.933,22.05-43.933,46.586
	c0,25.034,19.894,41.778,44.099,41.778c14.589,0,25.531-5.14,34.649-16.413L368.961,287.591L368.961,287.591z M316.24,248.135
	c2.321-12.766,8.124-24.039,22.713-24.039c12.268,0,18.9,7.792,18.9,20.059c0,4.975-6.466,3.98-9.45,3.98H316.24z M458.154,306.823
	h-1.99l-0.829-27.852h3.98c3.149,12.6,9.78,24.866,24.205,24.866c8.62,0,16.246-4.309,16.246-13.759
	c0-11.107-11.273-15.583-19.563-19.896c-11.273-5.802-23.376-12.267-23.376-27.021c0-13.429,10.777-23.376,24.205-23.376
	c5.97,0,13.43,1.657,18.9,4.807l3.813-4.642h2.321l-0.331,24.371h-3.814c-3.481-9.781-7.792-20.061-20.06-20.061
	c-6.466,0-12.435,3.648-12.435,10.776c0,10.113,10.61,13.761,18.07,17.74c13.43,6.962,25.532,12.102,25.532,29.674
	c0,16.083-13.596,25.697-28.517,25.697c-7.293,0-15.583-2.32-21.386-6.962L458.154,306.823L458.154,306.823z M559.945,219.785
	c-8.951,2.155-18.567,4.642-28.349,5.969v3.979c6.299,0,11.439-0.663,13.097,6.299c0.994,4.477,0.994,18.071,0.994,23.542v76.427
	c0,12.93,1.162,17.739-13.428,18.734v3.813l23.376-0.829l21.718,0.829v-3.813c-16.412-0.83-15.084-5.805-15.084-19.894v-37.8
	c8.453,7.626,16.577,11.106,28.016,11.106c24.537,0,42.109-19.894,42.109-43.601c0-25.365-17.572-44.598-43.271-44.598
	c-12.599-0.165-21.552,5.638-29.18,15.917L559.945,219.785L559.945,219.785z M562.269,258.91c0-7.959,0-14.921,4.142-21.883
	c4.146-7.128,11.44-11.107,19.729-11.107c21.224,0,26.857,20.225,26.857,37.965c0,17.571-6.299,38.13-27.354,38.13
	c-6.964,0-14.59-2.486-19.065-7.792c-4.309-5.14-4.309-14.755-4.309-21.387V258.91L562.269,258.91z M687.434,261.729
	c-12.432,5.638-31.001,12.767-31.001,29.013c0,10.942,9.946,17.242,20.226,17.242c11.938,0,23.211-6.466,32.33-13.927
	c1.989,7.792,8.785,13.927,16.743,13.927c7.129,0,14.424-6.631,17.573-13.098l-3.647-1.989c-2.154,2.651-4.145,6.3-7.957,6.3
	c-7.628,0-6.797-14.423-6.797-19.397v-32.162c0-22.38-9.948-28.018-31.5-28.018c-9.947,0-35.811,2.652-35.811,17.076
	c0,4.31,3.151,6.964,7.461,6.964c4.808,0,7.46-4.313,7.791-8.622c0.664-10.278,8.456-11.107,18.238-11.107
	c15.916,0,17.074,9.284,17.074,22.546c0,2.156,0.333,4.643-1.491,5.637L687.434,261.729L687.434,261.729z M708.325,289.083
	c-5.471,5.305-13.761,11.108-21.387,11.108c-7.959,0-12.434-6.797-12.434-14.093c0-15.583,22.049-23.209,33.653-28.847v31.831
	H708.325z M860.848,301.684v-3.978c-6.301,0-11.44,0.331-14.093-6.467c-1.989-5.141-1.989-14.921-1.989-20.392v-98.477
	l-31.167,6.134v3.813c13.926,0.332,14.588,6.632,14.588,18.402v30.837c-6.961-8.124-17.076-12.102-27.851-12.102
	c-24.704,0-41.612,21.387-41.612,45.258c0,24.205,17.076,43.104,41.612,43.104c13.263,0,22.049-4.642,30.504-14.754
	c0.663,5.306,1.825,10.278,3.813,14.754L860.848,301.684L860.848,301.684z M828.187,273.5c0,15.417-5.636,29.344-23.209,29.344
	c-21.055,0-26.692-20.393-26.692-37.965c0-16.908,5.638-39.125,26.692-39.125c11.273,0,23.209,7.625,23.209,19.895V273.5z
	 M951.533,287.591c-5.803,7.792-14.589,14.424-24.535,14.424c-20.724,0-30.506-20.724-30.506-39.292l0.829-9.449h55.87
	c1.989,0,4.809,0.829,4.809-1.823c0-21.22-18.071-31.831-37.136-31.831c-25.366,0-43.936,22.05-43.936,46.586
	c0,25.034,19.896,41.778,44.1,41.778c14.591,0,25.531-5.14,34.65-16.413L951.533,287.591L951.533,287.591z M899.145,248.135
	c2.32-12.766,8.123-24.039,22.712-24.039c12.269,0,18.9,7.792,18.9,20.059c0,4.975-6.465,3.98-9.45,3.98H899.145z M237.823,418.729
	c-2.321-3.316-4.145-4.477-8.289-4.642v-1.824l7.294,0.331c1.989,0,3.979-0.165,6.133-0.331l32.33,39.291v-21.22
	c0-3.315,0-8.621-0.664-11.771c-0.995-4.312-2.984-3.98-6.797-4.643v-1.823l8.455,0.331c2.653,0,5.305-0.166,8.123-0.331v1.823
	c-2.818,0.331-4.807,0-5.801,3.316c-0.83,2.484-0.83,10.277-0.83,13.428v32.827h-2.32c-1.659-1.991-3.316-4.146-4.974-6.301
	l-30.007-36.142v25.696c0,2.818,0,8.622,1.16,11.107c1.326,2.985,3.813,2.819,6.632,3.15v1.824c-2.818,0-5.802-0.166-8.786-0.331
	l-8.456,0.331v-1.824c2.983-0.331,5.803-0.496,6.631-3.813c0.663-2.818,0.663-7.627,0.663-10.445V418.73L237.823,418.729z
	 M310.437,427.183c0-2.485,0-8.122-0.829-10.112c-0.995-2.652-4.144-2.652-6.632-2.652v-1.989h37.965v11.604h-1.823
	c-1.493-8.953-5.306-9.45-13.429-9.45h-5.471c-2.321,0-1.99-0.331-1.99,3.15v18.07c10.445,0.498,11.938-3.813,12.434-9.283h1.824
	c0,3.481-0.167,6.963-0.332,10.278l0.332,9.45h-1.657c-0.995-7.958-5.14-8.454-12.435-8.454v12.599c0,2.321,0,5.802,1.327,7.626
	c1.989,2.653,6.797,2.819,9.782,2.653c7.958-0.165,13.096-1.16,14.091-10.279h1.824l-0.664,12.269h-41.447v-1.823
	c2.487,0,5.637,0,6.631-2.654c0.83-1.989,0.83-7.791,0.83-10.111v-20.891H310.437z M397.143,425.196l-6.134,20.723
	c-1.989,6.134-4.145,12.102-6.3,18.236h-2.486l-13.263-40.949c-0.664-1.824-1.658-5.803-2.819-7.129
	c-1.327-1.824-3.316-1.824-5.471-1.989v-1.824l10.942,0.331c3.813,0,7.626-0.165,11.273-0.331v1.824
	c-2.487,0.165-6.797,0.165-6.797,3.646c0,1.824,1.824,7.462,2.321,9.285l8.124,26.193l12.103-41.114h2.486l12.6,40.45l5.305-16.578
	c0.996-3.314,3.979-13.926,3.979-16.91c0-4.808-2.816-4.808-6.63-5.139v-1.823l8.289,0.331c2.654,0,5.305-0.166,7.958-0.331v1.823
	c-5.636-0.166-6.631,5.801-7.958,10.112l-12.599,40.121h-2.653L397.143,425.196L397.143,425.196z M502.75,452.88
	c0,7.296,0.167,7.628,7.627,8.291v1.822c-3.814,0-7.627-0.165-11.44-0.331l-11.771,0.331v-1.822
	c7.461-0.663,7.792-0.995,7.792-8.291v-9.45l-6.962-12.101c-0.83-1.493-6.633-13.099-9.285-15.751
	c-1.327-1.491-2.653-0.995-4.476-1.326v-1.823l10.445,0.331c3.648,0,7.129-0.166,10.776-0.331v1.823
	c-1.659,0-5.803-0.165-5.803,2.487c0,1.989,0.995,3.647,1.989,5.305l9.947,18.403l4.808-7.792
	c1.658-2.653,7.627-12.435,7.627-15.253c0-2.819-3.482-2.984-5.474-3.15v-1.823c2.82,0.165,5.474,0.165,8.125,0.331
	c2.488,0,4.973-0.166,7.461-0.331v1.823c-4.478,0.331-5.969,3.316-8.124,6.798l-13.263,21.884V452.88z M563.427,463.656
	c15.419,0,27.686-10.776,27.686-26.526c0-15.086-12.765-25.696-27.52-25.696s-28.019,11.107-28.019,26.36
	C535.742,453.047,548.507,463.656,563.427,463.656 M563.262,413.59c13.429,0,18.236,12.599,18.236,24.038
	c0,11.44-4.146,24.038-17.739,24.038c-13.927,0-18.735-11.936-18.735-23.871C545.024,426.521,549.999,413.59,563.262,413.59"/>
<path d="M634.881,437.959c7.627-0.663,13.927-4.808,13.927-13.096c0-10.611-8.787-12.601-17.574-12.601
	c-3.149,0-6.465,0.166-9.781,0.331c-4.31,0-8.786-0.165-13.096-0.331v1.824c2.486,0,5.638-0.166,6.466,2.652
	c0.663,1.99,0.663,7.626,0.663,10.112v21.553c0,2.486,0,8.122-0.663,10.114c-0.828,2.652-3.979,2.652-6.466,2.652v1.822
	c3.812,0,7.626-0.165,11.438-0.331c3.649,0.166,7.296,0.166,10.777,0.331v-1.822c-2.487,0-5.637,0-6.466-2.652
	c-0.662-1.992-0.662-7.793-0.662-10.114v-8.952c3.978,0,3.812,0.497,6.301,3.315l12.597,15.751l3.649,4.475
	c1.823,0,3.812-0.165,5.801-0.331c2.322,0.166,4.643,0.166,6.797,0.331v-1.822c-3.812-0.663-4.973-1.658-7.459-4.478
	L634.881,437.959L634.881,437.959z M623.443,417.403c0-0.83-0.166-2.322,0.828-2.653c0.663-0.331,3.979,0,4.973,0
	c6.964,0,10.776,4.643,10.776,11.439c0,10.941-6.961,11.272-16.577,11.272V417.403L623.443,417.403z M686.772,443.763v8.952
	c0,7.293,0.166,7.626,7.461,8.289v1.824c-3.647,0-7.461-0.166-11.107-0.331c-3.979,0.165-7.792,0.165-11.605,0.331v-1.824
	c2.486,0,5.637,0,6.633-2.653c0.826-1.988,0.826-7.792,0.826-10.112v-21.551c0-2.488,0-8.124-0.826-10.115
	c-0.996-2.651-4.146-2.651-6.633-2.651v-1.823l10.942,0.331c3.979,0,7.958-0.166,11.771-0.331v1.823
	c-7.295,0.662-7.461,0.994-7.461,8.289v18.568c3.648-3.813,18.402-19.397,18.402-23.874c0-3.149-3.482-2.817-5.803-2.983v-1.823
	c2.983,0.165,5.971,0.165,9.119,0.331c2.651,0,5.305-0.166,7.958-0.331v1.823c-4.145,0-5.14,0.994-7.792,4.31l-12.27,15.088
	L707,445.419c0.827,1.161,8.951,11.606,12.599,14.258c1.491,1.162,2.652,0.996,4.475,1.162v1.823c-3.977,0-8.122-0.165-12.1-0.331
	l-11.607,0.331v-1.823c1.326,0,6.467,0.165,6.467-2.323c0-1.657-4.808-7.293-5.968-8.62l-9.284-11.272L686.772,443.763z
	 M543.699,70.08c0,0,1.988-18.9-36.474-44.929c0,0-18.733-12.267-27.354-22.048c-0.33-0.332-0.498-0.664-0.994-0.664
	c-0.499,0-0.663,0.332-0.995,0.664c-8.621,9.781-27.355,22.048-27.355,22.048C412.065,51.18,414.054,70.08,414.054,70.08
	c-1.658,16.247,10.609,31.997,27.022,31.997c13.098,0,22.547-7.46,26.028-10.776l1.493-1.491c0.663-0.83,1.491-1.658,1.657-1.99
	c0,0,0.498,0.497,0.498,0.663c0.331,0.664,0.663,1.327,0.663,1.99c1.658,13.594-15.252,30.67-20.226,35.312
	c0,0-1.326,1.493-1.326,3.482v2.983h57.86v-2.983c0-1.99-1.327-3.482-1.327-3.482c-4.974-4.642-21.885-21.718-20.228-35.312
	c0.169-0.663,0.333-1.493,0.664-1.99l0.498-0.663c0.165,0.497,0.996,1.327,1.658,1.99l1.491,1.491
	c3.481,3.316,12.931,10.776,26.028,10.776C533.09,101.912,545.19,86.327,543.699,70.08L543.699,70.08z"/>
</svg>
