<svg xmlns="http://www.w3.org/2000/svg" viewBox="0 0 30 30" enable-background="new 0 0 30 30"><style type="text/css">.st0{fill:#231F20;} .st1{fill:#FFFFFF;}</style><circle class="st0" cx="15" cy="15" r="15"/><path class="st1" d="M15.7 8.8c-3.4 0-5.1 2.4-5.1 4.5 0 1.2.5 2.3 1.5 2.7.2.1.3 0 .4-.2 0-.1.1-.4.1-.6 0-.2 0-.2-.1-.4-.3-.3-.5-.8-.5-1.4 0-1.8 1.3-3.4 3.5-3.4 1.9 0 3 1.2 3 2.7 0 2.1-.9 3.8-2.3 3.8-.7 0-1.3-.6-1.1-1.4.2-.9.6-1.9.6-2.5 0-.6-.3-1.1-1-1.1-.8 0-1.4.8-1.4 1.8 0 .7.2 1.1.2 1.1s-.8 3.3-.9 3.9c-.3 1.2 0 2.6 0 2.7 0 .1.1.1.2 0s1-1.2 1.3-2.3c.1-.3.5-2 .5-2 .2.5 1 .9 1.7.9 2.3 0 3.8-2.1 3.8-4.9.1-1.9-1.7-3.9-4.4-3.9"/></svg>