<svg xmlns="http://www.w3.org/2000/svg" viewBox="0 0 30 30" enable-background="new 0 0 30 30"><style type="text/css">.st0{fill:#231F20;} .st1{fill:#FFFFFF;}</style><circle class="st0" cx="15" cy="15" r="15"/><path class="st1" d="M18.8 20.4c-.5.2-1 .4-1.4.5-.4.1-.9.1-1.4.1-.5 0-.9-.1-1.3-.2s-.8-.3-1.1-.6c-.3-.3-.5-.5-.6-.8-.1-.3-.2-.7-.2-1.3v-4.2h-1.6v-1.7c.5-.2 1-.4 1.4-.7.3-.3.6-.6.8-1 .2-.4.3-.9.4-1.5h1.7v2.8h2.8v2.1h-2.8v3.1c0 .7 0 1.1.1 1.3.1.2.3.4.5.5.3.2.6.2.9.2.6 0 1.2-.2 1.8-.6v2z"/></svg>