<?xml version="1.0" encoding="utf-8"?>
<!-- Generator: Adobe Illustrator 16.0.2, SVG Export Plug-In . SVG Version: 6.00 Build 0)  -->
<!DOCTYPE svg PUBLIC "-//W3C//DTD SVG 1.1//EN" "http://www.w3.org/Graphics/SVG/1.1/DTD/svg11.dtd">
<svg version="1.1" id="Layer_1" xmlns="http://www.w3.org/2000/svg" xmlns:xlink="http://www.w3.org/1999/xlink" x="0px" y="0px"
	 width="1310.75px" height="342.365px" viewBox="0 0 1310.75 342.365" enable-background="new 0 0 1310.75 342.365"
	 xml:space="preserve">
<path fill="#FF993A" d="M1,308.219h8.351c15.317,0,20.8-6.322,20.8-18.959V110.701h39.711v182.935
	c0,29.127-11.867,48.729-55.752,48.729H1V308.219z M126.618,339.226H88.183L130.722,110.7h49.301l42.542,228.526H184.2
	l-7.075-50.667h-43.506L126.618,339.226z M139.418,254.392h31.981l-15.699-98.101h-0.619L139.418,254.392z M360.634,186.941v-16.722
	c0-34.222-19.214-62.677-58.857-62.677c-41.61,0-60.859,26.239-60.859,58.576v117.74c0,32.254,19.249,58.507,60.859,58.507
	c39.643,0,58.857-26.253,58.857-58.507v-26.29h-39.71v27.538c0,14.835-4.762,23.112-19.146,23.112
	c-16.044,0-21.15-8.277-21.15-25.338V167.01c0-17.095,5.106-25.288,21.15-25.288c10.212,0,19.146,8.193,19.146,27.587v17.631
	H360.634z M434.571,339.226v-81.008l14.08-25.374h0.648l32.292,106.382h40.334L473.59,195.801l42.813-85.1h-39.674l-41.61,84.521
	h-0.547V110.7H394.86v228.526H434.571L434.571,339.226z M738.418,162.92c-3.521-32.244-22.701-55.376-55.028-55.376
	c-39.056,0-61.485,20.564-61.485,56.951c0,65.471,80.732,77.609,80.732,122.81c0,13.635-9.348,20.917-23.146,20.917
	c-12.736,0-22.077-11.438-23.67-34.496l-37.71,5.388c1.59,34.17,22.737,63.253,59.481,63.253c37.157,0,62.792-20.897,62.792-58.507
	c0-62.044-80.696-80.71-80.696-119.64c0-14.302,7.066-22.494,19.804-22.494c9.001,0,19.591,5.675,21.147,25.287L738.418,162.92z
	 M765.052,339.226V110.701h57.026c48.962,0,71.697,18.702,71.697,67.408c0,48.731-22.735,67.394-71.697,67.394h-17.28v93.724
	H765.052L765.052,339.226z M804.798,213.292h15.316c25.977,0,34.019-7.976,34.019-35.183c0-27.199-8.042-35.14-34.019-35.14h-15.316
	V213.292z M931.76,339.226h-38.403L935.9,110.7h49.302l42.576,228.526h-38.335l-7.107-50.667h-43.469L931.76,339.226z
	 M944.557,254.392h32.053l-15.734-98.101h-0.616L944.557,254.392z M1051.229,110.701h58.823c41.031,0,62.802,22.12,62.802,68.984
	v90.523c0,46.881-21.771,69.018-62.802,69.018h-58.823V110.701L1051.229,110.701z M1090.907,306.925h13.735
	c21.18,0,28.465-7.925,28.465-31.95v-99.988c0-24.076-7.285-32.017-28.465-32.017h-13.735V306.925z M1310.75,339.226v-34.154
	h-70.972v-67.123h51.132v-34.224h-51.132V144.89h66.517v-34.188h-106.262v228.525H1310.75L1310.75,339.226z"/>
</svg>
