<svg xmlns="http://www.w3.org/2000/svg" xmlns:xlink="http://www.w3.org/1999/xlink" viewBox="0 0 30 30" enable-background="new 0 0 30 30"><style type="text/css">.st0{clip-path:url(#XMLID_15_);} .st1{fill:#BEB2A7;} .st2{fill:#4F3F34;} .st3{fill:#E52330;} .st4{fill:#EFBF2F;} .st5{fill:#75B45B;} .st6{fill:#526AB0;} .st7{fill:#FFFFFF;}</style><g id="XMLID_1_"><defs><circle id="XMLID_7_" cx="15" cy="15" r="15"/></defs><clipPath id="XMLID_15_"><use xlink:href="#XMLID_7_" overflow="visible"/></clipPath><g class="st0"><path id="XMLID_13_" class="st1" d="M-2 16h32v16h-32z"/><path id="XMLID_12_" class="st2" d="M30 16h-32v-16h32z"/></g><g class="st0"><path id="XMLID_11_" class="st3" d="M10.7 0h2.1v9.9h-2.1z"/><path id="XMLID_10_" class="st4" d="M12.8 0h2.1v9.9h-2.1z"/><path id="XMLID_9_" class="st5" d="M14.9 0h2.1v9.9h-2.1z"/><path id="XMLID_8_" class="st6" d="M17 0h2.1v9.9h-2.1z"/></g><path id="XMLID_6_" class="st2" d="M9.8 11h10.6v9.5h-10.6z"/><path id="rect4122_1_" class="st7" d="M10.9 9c-1.1 0-1.9.8-1.9 1.9v8.1c0 1.1.9 1.9 1.9 1.9h8.1c1.1 0 1.9-.9 1.9-1.9v-8.1c.1-1.1-.7-1.9-1.8-1.9h-8.2zm6.5 1.3h1.8c.2 0 .4.2.4.4v1.8c0 .2-.2.4-.4.4h-1.8c-.2 0-.4-.2-.4-.4v-1.8c0-.2.2-.4.4-.4zm-2.4 2.4c1.4 0 2.4 1.1 2.4 2.4 0 1.4-1.1 2.4-2.4 2.4-1.4 0-2.4-1.1-2.4-2.4 0-1.3 1-2.4 2.4-2.4zm-5 1.5h1.7c-.1.3-.1.6-.1 1 0 1.9 1.6 3.5 3.5 3.5s3.5-1.6 3.5-3.5l-.1-1h1.5v4.7c0 .7-.6 1.3-1.3 1.3h-7.4c-.7 0-1.3-.6-1.3-1.3v-4.7z"/></g></svg>