<svg xmlns="http://www.w3.org/2000/svg" viewBox="0 0 30 30" enable-background="new 0 0 30 30"><style type="text/css">.st0{fill:#231F20;} .st1{fill:#FFFFFF;}</style><circle class="st0" cx="15" cy="15" r="15"/><path class="st1" d="M20.3 11.4c-.4.2-.9.3-1.3.4.5-.3.9-.8 1-1.3-.5.3-1 .5-1.5.6-.4-.5-1-.7-1.7-.7-1.3 0-2.4 1.1-2.4 2.4 0 .2 0 .4.1.5-2-.1-3.7-1-4.8-2.5-.2.3-.3.8-.3 1.2 0 .8.4 1.5 1 2-.4 0-.7-.1-1.1-.3 0 1.1.8 2.1 1.9 2.3-.2-.1-.4 0-.7 0h-.4c.3.9 1.2 1.6 2.2 1.6-.8.6-1.8 1-2.9 1h-.6c1 .7 2.3 1.1 3.6 1.1 4.3 0 6.7-3.6 6.7-6.7v-.3c.5-.4.9-.9 1.2-1.3z"/></svg>