<svg xmlns="http://www.w3.org/2000/svg" viewBox="0 0 30 30" enable-background="new 0 0 30 30"><style type="text/css">.st0{fill:#231F20;} .st1{fill:#FFFFFF;}</style><g id="XMLID_14_"><circle id="XMLID_27_" class="st0" cx="15" cy="15" r="15"/><path id="rect4122_5_" class="st1" d="M10.9 9c-1.1 0-1.9.8-1.9 1.9v8.1c0 1.1.9 1.9 1.9 1.9h8.1c1.1 0 1.9-.9 1.9-1.9v-8.1c.1-1.1-.7-1.9-1.8-1.9h-8.2zm6.5 1.3h1.8c.2 0 .4.2.4.4v1.8c0 .2-.2.4-.4.4h-1.8c-.2 0-.4-.2-.4-.4v-1.8c0-.2.2-.4.4-.4zm-2.4 2.4c1.4 0 2.4 1.1 2.4 2.4 0 1.4-1.1 2.4-2.4 2.4-1.4 0-2.4-1.1-2.4-2.4 0-1.3 1-2.4 2.4-2.4zm-5 1.5h1.7c-.1.3-.1.6-.1 1 0 1.9 1.6 3.5 3.5 3.5s3.5-1.6 3.5-3.5l-.1-1h1.5v4.7c0 .7-.6 1.3-1.3 1.3h-7.4c-.7 0-1.3-.6-1.3-1.3v-4.7z"/></g></svg>